HIERARCHY
	ROOT Hips
	{
		OFFSET 0 0 0 
		CHANNELS 6 Xposition Yposition Zposition Zrotation Xrotation Yrotation
		JOINT LHipJoint
		{
			OFFSET 0 0 0 
			CHANNELS 3 Zrotation Xrotation Yrotation
			JOINT LeftUpLeg
			{
				OFFSET 0.0783705 -0.0912565 0.0336595 
				CHANNELS 3 Zrotation Xrotation Yrotation
				JOINT LeftLeg
				{
					OFFSET 0.117854 -0.323802 0 
					CHANNELS 3 Zrotation Xrotation Yrotation
					JOINT LeftFoot
					{
						OFFSET 0.135318 -0.371784 0 
						CHANNELS 3 Zrotation Xrotation Yrotation
						JOINT LeftToeBase
						{
							OFFSET 0.0102135 -0.028061 0.104268 
							CHANNELS 3 Zrotation Xrotation Yrotation
							End Site
							{
								OFFSET 0 -0 0.0542675
							}
						}
					}
				}
			}
		}
		JOINT RHipJoint
		{
			OFFSET 0 0 0 
			CHANNELS 3 Zrotation Xrotation Yrotation
			JOINT RightUpLeg
			{
				OFFSET -0.075711 -0.0912565 0.0336595 
				CHANNELS 3 Zrotation Xrotation Yrotation
				JOINT RightLeg
				{
					OFFSET -0.124412 -0.341819 0 
					CHANNELS 3 Zrotation Xrotation Yrotation
					JOINT RightFoot
					{
						OFFSET -0.135017 -0.370955 0 
						CHANNELS 3 Zrotation Xrotation Yrotation
						JOINT RightToeBase
						{
							OFFSET -0.009875 -0.0271315 0.111076 
							CHANNELS 3 Zrotation Xrotation Yrotation
							End Site
							{
								OFFSET -0 -0 0.0574575
							}
						}
					}
				}
			}
		}
		JOINT LowerBack
		{
			OFFSET 0 0 0 
			CHANNELS 3 Zrotation Xrotation Yrotation
			JOINT Spine
			{
				OFFSET -0.0007835 0.106437 -0.007921 
				CHANNELS 3 Zrotation Xrotation Yrotation
				JOINT Spine1
				{
					OFFSET 0.003049 0.106663 -0.0005215 
					CHANNELS 3 Zrotation Xrotation Yrotation
					JOINT Neck
					{
						OFFSET 0 0 0 
						CHANNELS 3 Zrotation Xrotation Yrotation
						JOINT Neck1
						{
							OFFSET -0.00252 0.089216 0.0066935 
							CHANNELS 3 Zrotation Xrotation Yrotation
							JOINT Head
							{
								OFFSET -9e-005 0.08844 -0.0166515 
								CHANNELS 3 Zrotation Xrotation Yrotation
								End Site
								{
									OFFSET 0.000367 0.0906245 -0.0063595
								}
							}
						}
					}
					JOINT LeftShoulder
					{
						OFFSET 0 0 0 
						CHANNELS 3 Zrotation Xrotation Yrotation
						JOINT LeftArm
						{
							OFFSET 0.1861 0.047094 -0.0271585 
							CHANNELS 3 Zrotation Xrotation Yrotation
							JOINT LeftForeArm
							{
								OFFSET 0.257301 -0 0 
								CHANNELS 3 Zrotation Xrotation Yrotation
								JOINT LeftHand
								{
									OFFSET 0.182226 -0 -0 
									CHANNELS 3 Zrotation Xrotation Yrotation
									JOINT LeftFingerBase
									{
										OFFSET 0 0 0 
										CHANNELS 3 Zrotation Xrotation Yrotation
										JOINT LFingers
										{
											OFFSET 0.028114 -0 0 
											CHANNELS 3 Zrotation Xrotation Yrotation
											End Site
											{
												OFFSET 0.022666 -0 0
											}
										}
									}
									JOINT LThumb
									{
										OFFSET 0 0 0 
										CHANNELS 3 Zrotation Xrotation Yrotation
										End Site
										{
											OFFSET 0.0230125 -0 0.0230125
										}
									}
								}
							}
						}
					}
					JOINT RightShoulder
					{
						OFFSET 0 0 0 
						CHANNELS 3 Zrotation Xrotation Yrotation
						JOINT RightArm
						{
							OFFSET -0.165127 0.0613395 -0.0234705 
							CHANNELS 3 Zrotation Xrotation Yrotation
							JOINT RightForeArm
							{
								OFFSET -0.266957 -0 0 
								CHANNELS 3 Zrotation Xrotation Yrotation
								JOINT RightHand
								{
									OFFSET -0.178239 -0 -0 
									CHANNELS 3 Zrotation Xrotation Yrotation
									JOINT RightFingerBase
									{
										OFFSET 0 0 0 
										CHANNELS 3 Zrotation Xrotation Yrotation
										JOINT RFingers
										{
											OFFSET -0.0428735 -0 0 
											CHANNELS 3 Zrotation Xrotation Yrotation
											End Site
											{
												OFFSET -0.034566 -0 0
											}
										}
									}
									JOINT RThumb
									{
										OFFSET 0 0 0 
										CHANNELS 3 Zrotation Xrotation Yrotation
										End Site
										{
											OFFSET -0.0350935 -0 0.0350935
										}
									}
								}
							}
						}
					}
				}
			}
		}
	}
MOTION
Frames:	7
Frame Time:	0.0166667
-0.306485 0.863465 -0.144455 1.45237 4.59473 1.8048 -0 0 -0 -28.6717 -33.6442 -8.87518 -1.68815 22.2572 8.56654 1.24475 -10.1148 6.95085 -0.813447 -15.7295 -5.88366 -0 0 -0 27.5558 -5.41789 11.0547 4.64978 34.9098 -14.7145 -1.71321 -25.3455 0.204151 0.617217 13.7581 -5.11287 2.05677 8.45428 1.96789 3.89557 2.84691 2.87735 2.61878 -1.87882 1.42667 -0.722924 -7.79231 10.3951 -6.48259 28.7616 16.8393 1.35477 10.4882 6.88324 -0 0 -0 -88.8019 36.5732 -1.95868 17.897 -5.19749 -32.1589 -0 2.3396 -0 17.507 7.25273 21.8128 -7.125 0 0 -7.32825 -0.998514 52.717 -0 0 -0 81.2805 12.6843 4.64531 -17.0259 -4.66958 30.4742 -0 13.6331 -0 -15.3082 -0.56174 2.0511 7.125 0 -0 10.3704 3.23416 -27.8662 
-0.30743 0.86636 -0.15318 1.51727 4.46146 3.33512 -0 0 -0 -28.472 -33.3975 -9.06791 -2.19491 25.1239 9.82739 0.98464 -9.73682 5.27946 -0.813917 -15.7336 -5.88534 -0 0 -0 27.5425 -5.64124 10.7687 4.49467 34.4193 -14.4418 -2.04668 -24.7878 -0.882404 0.63255 13.9232 -5.1768 2.20594 8.27105 1.89259 3.67084 3.09909 2.76605 2.32978 -1.49607 1.37417 -0.686749 -8.41392 10.2923 -6.32828 28.5432 16.6463 1.39182 10.5142 6.81221 -0 0 -0 -89.1157 35.6032 -1.68432 17.2713 -4.81485 -30.9469 -0 5.7468 -0 10.7486 6.16312 29.4906 -7.125 0 0 -13.2719 -3.42217 59.2018 -0 0 -0 82.0946 12.3951 3.87291 -17.2362 -4.79382 30.8789 -0 14.2938 -0 -15.5752 -0.432541 1.55154 7.125 0 -0 10.1562 3.06629 -28.3742 
-0.308585 0.8688 -0.162325 1.91902 4.56346 4.57754 -0 0 -0 -28.6625 -33.0282 -9.94959 -2.78118 27.9587 11.139 0.828658 -9.90216 3.89237 -1.17796 -18.7865 -7.11199 -0 0 -0 27.2949 -6.28645 11.0306 4.44739 34.2672 -14.358 -2.56519 -24.0826 -2.60794 0.646975 14.0774 -5.23669 1.34393 8.22125 1.98157 3.70585 2.9662 2.82399 2.83728 -1.65071 1.40148 -0.67108 -7.90425 10.1987 -6.70488 28.0568 16.5497 1.15965 10.2892 6.78013 -0 0 -0 -90.3079 34.7498 -0.561435 16.0402 -4.11273 -28.5931 -0 5.8629 -0 10.1478 5.95003 30.0772 -7.125 0 0 -13.8261 -3.68778 59.6467 -0 0 -0 82.3841 12.238 2.62438 -17.2906 -4.82639 30.984 -0 13.9769 -0 -16.1569 -0.715536 2.46839 7.125 0 -0 9.56114 3.05794 -27.4267 
-0.31042 0.87083 -0.171135 1.96902 4.20831 5.94709 -0 0 -0 -28.1771 -32.1795 -10.7526 -3.46743 30.8117 12.5371 0.680431 -10.4986 2.39166 -1.19263 -18.8969 -7.15721 -0 0 -0 27.5395 -6.45229 11.1745 4.45413 34.2892 -14.37 -3.01156 -23.6772 -4.08366 0.770101 15.3191 -5.72195 1.09882 8.32084 2.03129 3.63359 3.29629 2.86224 2.90674 -1.37408 1.41941 -0.857319 -8.70482 10.0779 -6.5211 28.3231 16.4398 1.31908 10.5003 6.69135 -0 0 -0 -90.4363 33.106 -1.0514 14.4203 -3.28633 -25.5523 -0 6.4053 -0 10.2681 5.81398 29.2132 -7.125 0 0 -13.8443 -3.47154 58.8044 -0 0 -0 82.8353 11.8427 2.19699 -17.2909 -4.82654 30.9844 -0 13.1219 -0 -15.9657 -0.523234 1.82818 7.125 0 -0 9.77851 3.00391 -28.087 
-0.310915 0.872255 -0.18006 2.0663 3.82067 7.08783 -0 0 -0 -27.6625 -31.0351 -11.6937 -4.22777 33.5448 13.9642 0.604657 -11.0852 1.56389 -1.14186 -18.5099 -6.99904 -0 0 -0 27.4798 -6.83329 10.8298 4.48479 34.3876 -14.4242 -3.28291 -23.5906 -4.91941 0.8262 15.8483 -5.9307 1.17033 8.60104 2.09315 3.42091 3.40728 2.95172 2.63227 -1.40234 1.46524 -0.965773 -8.33497 9.96481 -6.21175 27.9144 16.1533 1.3146 10.2564 6.62767 -0 0 -0 -90.6423 31.1484 -0.810916 13.0683 -2.67661 -23.0565 -0 7.3718 -0 10.0729 5.94995 30.2652 -7.125 0 0 -13.8748 -3.74646 59.817 -0 0 -0 83.6899 11.4484 1.22589 -17.1469 -4.7409 30.7071 -0 12.2866 -0 -17.1796 -1.06339 3.43519 7.125 0 -0 8.55624 2.901 -26.4079 
-0.312155 0.87383 -0.188735 2.28334 3.67955 8.25814 -0 0 -0 -27.3216 -30.0773 -12.7228 -5.04708 36.112 15.3984 0.579159 -11.3953 1.25127 -1.23644 -19.2235 -7.29138 -0 0 -0 27.3884 -7.45185 10.901 4.59159 34.7273 -14.6125 -3.56823 -23.3311 -5.9225 0.784266 15.4543 -5.77518 0.91369 8.62459 2.19028 3.23615 3.42123 3.05785 2.5736 -1.40771 1.51816 -1.24091 -7.72258 9.83719 -5.85057 27.531 15.8602 1.33922 9.96396 6.5553 -0 0 -0 -90.9628 28.5956 -0.320379 11.8549 -2.18804 -20.8439 -0 9.7314 -0 9.48833 5.85785 31.4104 -7.125 0 0 -14.3124 -4.14584 60.8213 -0 0 -0 84.3979 10.8458 0.510519 -16.8127 -4.54553 30.0654 -0 12.3196 -0 -17.9682 -1.32434 4.07639 7.125 0 -0 7.78955 2.74282 -25.7197 
-0.312915 0.873535 -0.197305 2.41451 3.48911 9.54786 -0 0 -0 -26.7336 -28.8885 -13.2903 -5.97861 38.6658 16.932 0.594836 -12.4668 0.841339 -0.995428 -17.3348 -6.52329 -0 0 -0 27.2754 -8.30287 10.5981 4.75666 35.2408 -14.9005 -3.74541 -23.1737 -6.55938 0.856343 16.1246 -6.04005 0.883981 8.49229 2.22349 3.02841 3.59449 3.08808 2.38662 -1.14739 1.53401 -1.30266 -7.92844 9.69001 -5.78178 27.7584 15.6956 1.3766 10.0764 6.46555 -0 0 -0 -90.9292 25.2648 -0.384809 10.5308 -1.71555 -18.4549 -0 12.3626 -0 9.22928 5.54179 30.7243 -7.125 0 0 -14.722 -4.0556 60.0648 -0 0 -0 85.0916 9.9182 -0.0552251 -16.5715 -4.40758 29.6039 -0 14.0449 -0 -17.1934 -1.0794 3.48382 7.125 0 -0 8.54022 2.90397 -26.3572 
